<svg xmlns="http://www.w3.org/2000/svg" xmlns:xlink="http://www.w3.org/1999/xlink" width="185" height="52" viewBox="0 0 185 52">
  <defs>
    <style>
      .cls-1 {
        fill: #1d49b1;
      }

      .cls-2 {
        fill: #603fdc;
      }

      .cls-2, .cls-3, .cls-4 {
        fill-rule: evenodd;
      }

      .cls-3, .cls-4 {
        fill: #fff;
      }

      .cls-3 {
        filter: url(#filter);
      }

      .cls-4 {
        filter: url(#filter-2);
      }
    </style>
    <filter id="filter" x="29" y="27" width="94" height="22" filterUnits="userSpaceOnUse">
      <feOffset result="offset" dy="-2" in="SourceAlpha"/>
      <feGaussianBlur result="blur"/>
      <feFlood result="flood"/>
      <feComposite result="composite" operator="in" in2="blur"/>
      <feBlend result="blend" in="SourceGraphic"/>
    </filter>
    <filter id="filter-2" x="141" y="27" width="19" height="22" filterUnits="userSpaceOnUse">
      <feOffset result="offset" dy="-2" in="SourceAlpha"/>
      <feGaussianBlur result="blur"/>
      <feFlood result="flood"/>
      <feComposite result="composite" operator="in" in2="blur"/>
      <feBlend result="blend" in="SourceGraphic"/>
    </filter>
  </defs>
  <rect class="cls-1" x="-39" y="26" width="188" height="61"/>
  <path class="cls-2" d="M118.125,26h41L185,52H144Z"/>
  <path id="LIMITED" class="cls-3" d="M42.375,44.83H35.682V33.018H33.9v13.4h8.474V44.83Zm7.978,0.216H48.6V34.386h1.754V33.018h-5.29v1.367h1.754v10.66H45.063v1.367h5.29V45.046ZM66.787,33.018H64.313l-3.454,7.458-3.571-7.458H54.858v13.4h1.664V34.872l3.7,7.853h1.062l3.724-7.853V46.414h1.781v-13.4Zm9.8,12.028H74.828V34.386h1.754V33.018h-5.29v1.367h1.754v10.66H71.292v1.367h5.29V45.046ZM90.641,33.018H79.288V34.6h4.786V46.414h1.781V34.6h4.786V33.018Zm12.1,11.812H95.7V39.855h7.044V38.272H95.7V34.6h7.044V33.018H93.915v13.4h8.825V44.83Zm14.851-8.474a5.989,5.989,0,0,0-2.132-2.276A6.8,6.8,0,0,0,113.5,33.3a13.626,13.626,0,0,0-3.117-.283h-3.347v13.4h3.383a14.143,14.143,0,0,0,2.973-.252,6.6,6.6,0,0,0,2.047-.819,5.949,5.949,0,0,0,2.118-2.3,6.889,6.889,0,0,0,.8-3.311A7.032,7.032,0,0,0,117.591,36.356Zm-1.6,5.955a4.029,4.029,0,0,1-1.5,1.682,5.036,5.036,0,0,1-1.759.7,11.716,11.716,0,0,1-2.244.189h-1.674V34.548h1.674a11.206,11.206,0,0,1,2.132.175,5.557,5.557,0,0,1,1.682.625,4.026,4.026,0,0,1,1.637,1.7,5.81,5.81,0,0,1,.549,2.654A6.03,6.03,0,0,1,115.994,42.311Z"/>
  <path id="U" class="cls-4" d="M155.51,33.25h-1.781V41.4a7.644,7.644,0,0,1-.149,1.642,3.357,3.357,0,0,1-.5,1.174A2.467,2.467,0,0,1,152,45.1a4.112,4.112,0,0,1-1.638.292,4.058,4.058,0,0,1-1.632-.3,2.446,2.446,0,0,1-1.075-.882,3.374,3.374,0,0,1-.5-1.143,7.83,7.83,0,0,1-.148-1.718V33.25h-1.781v8.015a8.864,8.864,0,0,0,.319,2.564,4.265,4.265,0,0,0,1.048,1.781,4.11,4.11,0,0,0,1.574.98,6.553,6.553,0,0,0,2.195.333,6.709,6.709,0,0,0,2.159-.315,4.2,4.2,0,0,0,1.62-1,4.124,4.124,0,0,0,1.048-1.8,9.032,9.032,0,0,0,.319-2.541V33.25Z"/>
</svg>
