<svg xmlns="http://www.w3.org/2000/svg" xmlns:xlink="http://www.w3.org/1999/xlink" width="144" height="52" viewBox="0 0 144 52">
  <defs>
    <style>
      .cls-1 {
        fill: #1d49b1;
      }

      .cls-1, .cls-2 {
        fill-rule: evenodd;
      }

      .cls-2 {
        fill: #fff;
        filter: url(#filter);
      }
    </style>
    <filter id="filter" x="29" y="29" width="93" height="23" filterUnits="userSpaceOnUse">
      <feOffset result="offset" dy="2" in="SourceAlpha"/>
      <feGaussianBlur result="blur"/>
      <feFlood result="flood"/>
      <feComposite result="composite" operator="in" in2="blur"/>
      <feBlend result="blend" in="SourceGraphic"/>
    </filter>
  </defs>
  <path class="cls-1" d="M-26,26H118l26,26H0Z"/>
  <path id="LIMITED" class="cls-2" d="M41.786,43.617H35.093V31.8H33.312V45.2h8.474V43.617Zm7.978,0.216H48.01V33.172h1.754V31.8h-5.29v1.367h1.754v10.66H44.474V45.2h5.29V43.833ZM66.2,31.8H63.724L60.27,39.263,56.7,31.8H54.27V45.2h1.664V33.658l3.7,7.854h1.062l3.724-7.854V45.2H66.2V31.8Zm9.8,12.028H74.239V33.172h1.754V31.8H70.7v1.367h1.754v10.66H70.7V45.2h5.29V43.833ZM90.053,31.8H78.7v1.583h4.786V45.2h1.781V33.388h4.786V31.8Zm12.1,11.812H95.107V38.642h7.044V37.059H95.107v-3.67h7.044V31.8H93.326V45.2h8.825V43.617ZM117,35.142a5.98,5.98,0,0,0-2.132-2.276,6.783,6.783,0,0,0-1.957-.778A13.62,13.62,0,0,0,109.8,31.8H106.45V45.2h3.382a14.13,14.13,0,0,0,2.973-.252,6.594,6.594,0,0,0,2.047-.819,5.944,5.944,0,0,0,2.119-2.3,6.9,6.9,0,0,0,.8-3.31A7.02,7.02,0,0,0,117,35.142Zm-1.6,5.955a4.03,4.03,0,0,1-1.5,1.682,5.035,5.035,0,0,1-1.758.7,11.735,11.735,0,0,1-2.245.189h-1.673V33.334H109.9a11.183,11.183,0,0,1,2.132.175,5.562,5.562,0,0,1,1.683.625,4.032,4.032,0,0,1,1.637,1.7,5.81,5.81,0,0,1,.549,2.654A6.029,6.029,0,0,1,115.405,41.1Z"/>
</svg>
